HIERARCHY
ROOT Hips
{
  OFFSET 5.84602e-005 68.8428 3.50346
  CHANNELS 6 Xposition Yposition Zposition Zrotation Xrotation Yrotation
  JOINT Spine
  {
    OFFSET 0 8.597 -4.6522
    CHANNELS 3 Zrotation Xrotation Yrotation
    JOINT Spine1
    {
      OFFSET 0 7.8454 0.4098
      CHANNELS 3 Zrotation Xrotation Yrotation
      JOINT Spine2
      {
        OFFSET 0 9.7078 -2.1609
        CHANNELS 3 Zrotation Xrotation Yrotation
        JOINT Neck
        {
          OFFSET 0 21.8761 -0.4549
          CHANNELS 3 Zrotation Xrotation Yrotation
          JOINT Head
          {
            OFFSET 0 12.3537 3.3602
            CHANNELS 3 Zrotation Xrotation Yrotation
            End Site
            {
              OFFSET 0.0001 18.9506 0.5657
            }
          }
        }
        JOINT LeftShoulder
        {
          OFFSET 2.2086 21.1115 7.2329
          CHANNELS 3 Zrotation Xrotation Yrotation
          JOINT LeftArm
          {
            OFFSET 13.1193 3.0282 -4.8998
            CHANNELS 3 Zrotation Xrotation Yrotation
            JOINT LeftForeArm
            {
              OFFSET 27.4081 -0.0973053 -0.2375
              CHANNELS 3 Zrotation Xrotation Yrotation
              JOINT LeftHand
              {
                OFFSET 22.8641 0.0662994 -0.1369
                CHANNELS 3 Zrotation Xrotation Yrotation
                JOINT LeftHandIndex1
                {
                  OFFSET 8.8614 0.775009 2.4612
                  CHANNELS 3 Zrotation Xrotation Yrotation
                  JOINT LeftHandIndex2
                  {
                    OFFSET 3.3146 -0.808304 0.5841
                    CHANNELS 3 Zrotation Xrotation Yrotation
                    JOINT LeftHandIndex3
                    {
                      OFFSET 2.2628 -0.552002 0.3989
                      CHANNELS 3 Zrotation Xrotation Yrotation
                      End Site
                      {
                        OFFSET 1.6102 -0.4807 0.2612
                      }
                    }
                  }
                }
                JOINT LeftHandMiddle1
                {
                  OFFSET 8.9937 0.895004 0.2143
                  CHANNELS 3 Zrotation Xrotation Yrotation
                  JOINT LeftHandMiddle2
                  {
                    OFFSET 4.0984 0.0113983 -0.0242
                    CHANNELS 3 Zrotation Xrotation Yrotation
                    JOINT LeftHandMiddle3
                    {
                      OFFSET 2.2716 0.00689697 -0.0138001
                      CHANNELS 3 Zrotation Xrotation Yrotation
                      End Site
                      {
                        OFFSET 2.0404 -0.1441 0.0027
                      }
                    }
                  }
                }
                JOINT LeftHandRing1
                {
                  OFFSET 8.5234 0.597198 -2.0164
                  CHANNELS 3 Zrotation Xrotation Yrotation
                  JOINT LeftHandRing2
                  {
                    OFFSET 3.7188 -0.188293 -0.2328
                    CHANNELS 3 Zrotation Xrotation Yrotation
                    JOINT LeftHandRing3
                    {
                      OFFSET 2.1191 -0.106598 -0.1332
                      CHANNELS 3 Zrotation Xrotation Yrotation
                      End Site
                      {
                        OFFSET 1.8737 -0.2304 -0.0886
                      }
                    }
                  }
                }
                JOINT LeftHandPinky1
                {
                  OFFSET 7.9094 -0.601089 -3.4825
                  CHANNELS 3 Zrotation Xrotation Yrotation
                  JOINT LeftHandPinky2
                  {
                    OFFSET 2.2874 -0.477005 -0.6314
                    CHANNELS 3 Zrotation Xrotation Yrotation
                    JOINT LeftHandPinky3
                    {
                      OFFSET 1.6774 -0.349396 -0.4633
                      CHANNELS 3 Zrotation Xrotation Yrotation
                      End Site
                      {
                        OFFSET 1.4888 -0.4091 -0.3416
                      }
                    }
                  }
                }
                JOINT LeftHandThumb1
                {
                  OFFSET 1.833 -1.3875 1.3896
                  CHANNELS 3 Zrotation Xrotation Yrotation
                  JOINT LeftHandThumb2
                  {
                    OFFSET 3.4129 -1.121 2.5732
                    CHANNELS 3 Zrotation Xrotation Yrotation
                    JOINT LeftHandThumb3
                    {
                      OFFSET 2.2474 -0.804199 1.6192
                      CHANNELS 3 Zrotation Xrotation Yrotation
                      End Site
                      {
                        OFFSET 1.6527 -0.5689 1.1317
                      }
                    }
                  }
                }
              }
            }
          }
        }
        JOINT RightShoulder
        {
          OFFSET -2.2086 21.1115 7.2329
          CHANNELS 3 Zrotation Xrotation Yrotation
          JOINT RightArm
          {
            OFFSET -13.1216 3.0287 -4.9007
            CHANNELS 3 Zrotation Xrotation Yrotation
            JOINT RightForeArm
            {
              OFFSET -27.4081 -0.0973053 -0.2375
              CHANNELS 3 Zrotation Xrotation Yrotation
              JOINT RightHand
              {
                OFFSET -22.8641 0.0664063 -0.1369
                CHANNELS 3 Zrotation Xrotation Yrotation
                JOINT RightHandIndex1
                {
                  OFFSET -8.8614 0.774994 2.4612
                  CHANNELS 3 Zrotation Xrotation Yrotation
                  JOINT RightHandIndex2
                  {
                    OFFSET -3.3146 -0.808304 0.5841
                    CHANNELS 3 Zrotation Xrotation Yrotation
                    JOINT RightHandIndex3
                    {
                      OFFSET -2.2628 -0.552002 0.3989
                      CHANNELS 3 Zrotation Xrotation Yrotation
                      End Site
                      {
                        OFFSET -1.6102 -0.4807 0.2612
                      }
                    }
                  }
                }
                JOINT RightHandMiddle1
                {
                  OFFSET -8.9937 0.894989 0.2143
                  CHANNELS 3 Zrotation Xrotation Yrotation
                  JOINT RightHandMiddle2
                  {
                    OFFSET -4.0984 0.0113983 -0.0242
                    CHANNELS 3 Zrotation Xrotation Yrotation
                    JOINT RightHandMiddle3
                    {
                      OFFSET -2.2716 0.00691223 -0.0138001
                      CHANNELS 3 Zrotation Xrotation Yrotation
                      End Site
                      {
                        OFFSET -2.0404 -0.1441 0.0027
                      }
                    }
                  }
                }
                JOINT RightHandRing1
                {
                  OFFSET -8.5234 0.597198 -2.0164
                  CHANNELS 3 Zrotation Xrotation Yrotation
                  JOINT RightHandRing2
                  {
                    OFFSET -3.7188 -0.188309 -0.2328
                    CHANNELS 3 Zrotation Xrotation Yrotation
                    JOINT RightHandRing3
                    {
                      OFFSET -2.1191 -0.106598 -0.1332
                      CHANNELS 3 Zrotation Xrotation Yrotation
                      End Site
                      {
                        OFFSET -1.8737 -0.2304 -0.0886
                      }
                    }
                  }
                }
                JOINT RightHandPinky1
                {
                  OFFSET -7.9094 -0.601105 -3.4825
                  CHANNELS 3 Zrotation Xrotation Yrotation
                  JOINT RightHandPinky2
                  {
                    OFFSET -2.2874 -0.477005 -0.6314
                    CHANNELS 3 Zrotation Xrotation Yrotation
                    JOINT RightHandPinky3
                    {
                      OFFSET -1.6774 -0.349396 -0.4633
                      CHANNELS 3 Zrotation Xrotation Yrotation
                      End Site
                      {
                        OFFSET -1.4888 -0.4091 -0.3416
                      }
                    }
                  }
                }
                JOINT RightHandThumb1
                {
                  OFFSET -1.833 -1.38751 1.3896
                  CHANNELS 3 Zrotation Xrotation Yrotation
                  JOINT RightHandThumb2
                  {
                    OFFSET -3.41299 -1.12099 2.5732
                    CHANNELS 3 Zrotation Xrotation Yrotation
                    JOINT RightHandThumb3
                    {
                      OFFSET -2.24741 -0.804108 1.6192
                      CHANNELS 3 Zrotation Xrotation Yrotation
                      End Site
                      {
                        OFFSET -1.6527 -0.5689 1.1317
                      }
                    }
                  }
                }
              }
            }
          }
        }
      }
    }
  }
  JOINT RightUpLeg
  {
    OFFSET -9.1966 3.8861 -0.7581
    CHANNELS 3 Zrotation Xrotation Yrotation
    JOINT RightLeg
    {
      OFFSET -0.7359 -41.0265 0
      CHANNELS 3 Zrotation Xrotation Yrotation
      JOINT RightFoot
      {
        OFFSET 0 -40.2855 0
        CHANNELS 3 Zrotation Xrotation Yrotation
        JOINT RightToeBase
        {
          OFFSET 0 -5.6122 11.7359
          CHANNELS 3 Zrotation Xrotation Yrotation
          End Site
          {
            OFFSET 0 0 7.8731
          }
        }
      }
    }
  }
  JOINT LeftUpLeg
  {
    OFFSET 9.1965 3.8864 -0.7581
    CHANNELS 3 Zrotation Xrotation Yrotation
    JOINT LeftLeg
    {
      OFFSET 0.7359 -41.0268 0
      CHANNELS 3 Zrotation Xrotation Yrotation
      JOINT LeftFoot
      {
        OFFSET 0 -40.2855 0
        CHANNELS 3 Zrotation Xrotation Yrotation
        JOINT LeftToeBase
        {
          OFFSET 0 -5.6122 11.7359
          CHANNELS 3 Zrotation Xrotation Yrotation
          End Site
          {
            OFFSET 0 0 7.8731
          }
        }
      }
    }
  }
}
MOTION
Frames:	5
Frame Time:	0.0333333
1.62985 24.2258 7.75074 0 25.8027 -0 0.235859 2.16328 -0.366716 0.486099 4.32492 -0.743143 0.4861 4.32491 -0.743143 -6.35401 -6.91266 -0.619862 -1.12397e-006 -4.46828 -3.30846e-007 8.08868 5.86615 26.6989 -72.3751 31.6533 -23.2992 -19.7593 13.5463 -43.6527 9.33375 -15.7928 2.80258 -5.62934e-008 1.26366e-006 -1.13383e-006 -7.95139e-016 0 -0 -5.62934e-008 1.26366e-006 -1.13383e-006 -5.62934e-008 1.26366e-006 -1.13383e-006 -0.0145998 -8.76558e-005 -1.09321e-006 -5.62722e-008 1.26381e-006 -1.13367e-006 -5.62934e-008 1.26366e-006 -1.13383e-006 -0.0187506 -0.00117495 5.8796e-005 4.51748e-007 1.77513e-006 -1.66384e-006 -5.62934e-008 1.26366e-006 -1.13383e-006 -0.0122531 -0.00324371 0.000674494 -5.62995e-008 1.26379e-006 -1.1337e-006 -5.62934e-008 1.26366e-006 -1.13383e-006 -7.95139e-016 0 -0 -5.62934e-008 1.26366e-006 -1.13383e-006 -8.89237 5.81235 -27.2752 72.3381 31.6616 23.2889 19.8252 13.5984 43.8696 -8.92412 -15.5397 -2.99643 4.96962e-017 -3.97569e-016 -3.18055e-015 3.47873e-016 -3.97569e-016 -1.59028e-015 -1.09332e-015 -3.97569e-016 -0 4.96962e-017 -3.97569e-016 -3.18055e-015 0.0149983 -9.06013e-005 -1.27609e-006 -3.97569e-016 -1.19271e-015 -0 4.96962e-017 -3.97569e-016 -3.18055e-015 0.0190019 -0.00119103 -6.02231e-005 9.44227e-016 3.97569e-016 -0 4.96962e-017 -3.97569e-016 -3.18055e-015 0.012258 -0.00324659 -0.000676592 9.93923e-016 7.95139e-016 4.77083e-015 4.96962e-017 -3.97569e-016 -3.18055e-015 3.47873e-016 -3.97569e-016 -1.59028e-015 -1.09332e-015 -3.97569e-016 -0 -24.3683 -17.551 -14.7128 -36.1612 88.6265 34.2692 27.7105 46.0652 -30.8144 2.31273e-007 3.35809e-007 7.47883e-007 24.3515 -17.5637 14.6895 35.0835 88.6419 -33.1812 -27.7258 46.0643 30.8207 -2.99143e-006 2.3068e-007 9.2538e-007 
1.62986 24.276 7.47485 0 26.6078 -0 0.237429 1.94691 -0.36553 0.487715 3.8924 -0.739775 0.487714 3.8924 -0.739774 -6.32709 -7.5629 -0.684809 4.66199e-007 -5.41092 -1.35552e-007 8.1307 6.19759 26.761 -72.3751 31.6533 -23.2992 -19.8654 13.6484 -43.8957 9.42274 -15.7147 2.94749 9.93923e-016 -7.95139e-016 -3.18055e-015 -0 -7.95139e-016 -0 1.98785e-016 0 -0 9.93923e-016 -7.95139e-016 -3.18055e-015 -0.0146056 -8.71828e-005 3.55794e-007 -1.39149e-015 -2.38542e-015 1.59028e-015 9.93923e-016 -7.95139e-016 -3.18055e-015 -0.0187604 -0.00117623 5.72051e-005 3.97569e-016 -2.38542e-015 -3.18055e-015 9.93923e-016 -7.95139e-016 -3.18055e-015 -0.0122764 -0.003249 0.0006757 3.97569e-016 7.95139e-016 -0 9.93923e-016 -7.95139e-016 -3.18055e-015 -0 -7.95139e-016 -0 1.98785e-016 0 -0 -8.94192 6.14072 -27.3414 72.3381 31.6616 23.2889 19.9299 13.6995 44.1098 -9.0013 -15.4572 -3.14218 -1.08835e-014 3.57812e-015 4.77083e-015 -1.10325e-014 3.18055e-015 1.59028e-015 -1.10822e-014 2.78299e-015 -0 -1.08835e-014 3.57812e-015 4.77083e-015 0.0149892 -9.06182e-005 -1.49904e-006 4.66873e-007 9.55474e-008 -2.62072e-007 -1.08835e-014 3.57812e-015 4.77083e-015 0.0190072 -0.00119202 -6.04373e-005 4.67211e-007 9.54451e-008 -2.62085e-007 -1.08835e-014 3.57812e-015 4.77083e-015 0.0122716 -0.0032499 -0.000676004 4.66634e-007 9.52884e-008 -2.6214e-007 -1.08835e-014 3.57812e-015 4.77083e-015 -1.10325e-014 3.18055e-015 1.59028e-015 -1.10822e-014 2.78299e-015 -0 -24.3835 -18.6303 -14.9262 -45.1096 88.831 43.2085 27.9884 46.0156 -31.032 3.57812e-015 6.36111e-015 3.97569e-015 24.3663 -18.6422 14.9029 43.9886 88.8498 -42.0776 -28.0039 46.0138 31.0387 -4.6281e-007 6.71587e-007 -1.49573e-006 
1.62986 24.3277 7.19899 0 27.4128 -0 0.239001 1.73077 -0.364326 0.489348 3.46001 -0.736379 0.489348 3.46003 -0.736379 -6.30086 -8.21383 -0.749582 -6.54086e-007 -6.35449 -1.14376e-007 8.17237 6.52893 26.823 -72.3751 31.6533 -23.2992 -19.9711 13.7508 -44.1385 9.51144 -15.6364 3.09221 -5.96354e-016 7.95139e-016 -4.77083e-015 -7.95139e-016 7.95139e-016 -1.59028e-015 -1.98785e-016 0 -3.18055e-015 -5.96354e-016 7.95139e-016 -4.77083e-015 -0.0146112 -8.8423e-005 -3.54617e-008 1.98785e-016 7.95139e-016 4.77083e-015 -5.96354e-016 7.95139e-016 -4.77083e-015 -0.0187609 -0.00117616 5.91907e-005 -1.98785e-016 -7.95139e-016 -0 -5.96354e-016 7.95139e-016 -4.77083e-015 -0.0122757 -0.00324724 0.000675256 7.95139e-016 1.59028e-015 -3.18055e-015 -5.96354e-016 7.95139e-016 -4.77083e-015 -7.95139e-016 7.95139e-016 -1.59028e-015 -1.98785e-016 0 -3.18055e-015 -8.99114 6.46898 -27.4074 72.3381 31.6616 23.2889 20.0342 13.8011 44.3499 -9.07828 -15.3746 -3.28776 -6.83793e-008 -5.72127e-007 6.28079e-007 1.14301e-015 -3.97569e-016 -1.59028e-015 9.93923e-016 0 -0 -6.83793e-008 -5.72127e-007 6.28079e-007 0.0149994 -9.13248e-005 -1.50721e-006 8.44835e-016 3.97569e-016 -0 -6.83793e-008 -5.72127e-007 6.28079e-007 0.0189984 -0.00119062 -6.0188e-005 -3.97569e-016 -7.95139e-016 1.59028e-015 -6.83793e-008 -5.72127e-007 6.28079e-007 0.0122855 -0.00325089 -0.000676752 1.98785e-016 7.95139e-016 3.18055e-015 -6.83793e-008 -5.72127e-007 6.28079e-007 1.14301e-015 -3.97569e-016 -1.59028e-015 9.93923e-016 0 -0 -24.4027 -19.7091 -15.1411 -57.3873 88.9958 55.4771 28.2657 45.9654 -31.2491 2.37976e-006 -6.06043e-007 -5.93819e-007 24.3851 -19.7205 15.1179 56.3652 89.0187 -54.4454 -28.2815 45.9625 31.2561 7.55382e-015 3.18055e-015 -0 
1.62986 24.3809 6.92321 0 28.2175 -0 0.240563 1.51463 -0.363096 0.490985 3.02771 -0.732936 0.490985 3.02771 -0.732937 -6.27535 -8.86434 -0.8142 -6.69028e-007 -7.2989 -3.44025e-007 8.21373 6.86041 26.8847 -72.3751 31.6533 -23.2992 -20.0764 13.8537 -44.3813 9.59991 -15.5579 3.23674 -7.26867e-008 9.15268e-007 -2.50616e-007 -1.01567e-007 1.54724e-006 -8.17216e-007 -5.77601e-008 1.26394e-006 -1.1332e-006 -7.26867e-008 9.15268e-007 -2.50616e-007 -0.0146118 -8.72401e-005 -2.25595e-006 -5.77387e-008 1.26408e-006 -1.13304e-006 -7.26867e-008 9.15268e-007 -2.50616e-007 -0.0187516 -0.00117411 5.78732e-005 -5.77424e-008 1.26412e-006 -1.13299e-006 -7.26867e-008 9.15268e-007 -2.50616e-007 -0.0122798 -0.00324786 0.000674346 -5.7766e-008 1.26406e-006 -1.13306e-006 -7.26867e-008 9.15268e-007 -2.50616e-007 -1.01567e-007 1.54724e-006 -8.17216e-007 -5.77601e-008 1.26394e-006 -1.1332e-006 -9.03999 6.79741 -27.4731 72.3381 31.6616 23.2889 20.1381 13.9031 44.5899 -9.15504 -15.2918 -3.43317 1.14301e-015 -1.19271e-015 3.18055e-015 9.93923e-016 -7.95139e-016 1.59028e-015 1.19271e-015 -7.95139e-016 -0 1.14301e-015 -1.19271e-015 3.18055e-015 0.0149857 -9.13537e-005 4.2993e-007 2.08724e-015 -7.95139e-016 -1.59028e-015 1.14301e-015 -1.19271e-015 3.18055e-015 0.0189987 -0.00119099 -6.13399e-005 -1.98785e-016 -3.97569e-016 -1.59028e-015 1.14301e-015 -1.19271e-015 3.18055e-015 0.0122846 -0.00325201 -0.000676657 -9.93923e-017 -7.95139e-016 -3.18055e-015 1.14301e-015 -1.19271e-015 3.18055e-015 9.93923e-016 -7.95139e-016 1.59028e-015 1.19271e-015 -7.95139e-016 -0 -24.4258 -20.7875 -15.3576 -73.4188 89.0991 71.4994 28.5426 45.9143 -31.4657 3.45458e-006 9.02156e-007 5.70114e-007 24.4079 -20.7982 15.3345 72.7338 89.1254 -70.8052 -28.5586 45.9106 31.4731 -4.63007e-007 6.71305e-007 -1.49581e-006 
1.62987 24.4357 6.64752 0 29.0219 -0 0.242124 1.29856 -0.361849 0.492639 2.59558 -0.729464 0.492639 2.59558 -0.729464 -6.25038 -9.51555 -0.878664 -4.34941e-007 -8.24403 -2.26148e-007 8.25472 7.19183 26.9463 -72.3751 31.6533 -23.2992 -20.1812 13.9571 -44.624 9.68817 -15.4792 3.3811 -3.97569e-016 2.38542e-015 -1.59028e-015 3.97569e-016 0 1.59028e-015 -9.93923e-016 1.59028e-015 3.18055e-015 -3.97569e-016 2.38542e-015 -1.59028e-015 -0.014622 -8.91221e-005 4.04438e-007 5.96354e-016 0 3.18055e-015 -3.97569e-016 2.38542e-015 -1.59028e-015 -0.0187568 -0.00117615 5.86036e-005 -4.41391e-032 7.95139e-016 3.18055e-015 -3.97569e-016 2.38542e-015 -1.59028e-015 -0.0122403 -0.00324128 0.000674801 -9.93923e-016 -7.95139e-016 -1.59028e-015 -3.97569e-016 2.38542e-015 -1.59028e-015 3.97569e-016 0 1.59028e-015 -9.93923e-016 1.59028e-015 3.18055e-015 -9.0885 7.12579 -27.5386 72.3381 31.6616 23.2889 20.2416 14.0055 44.8298 -9.23148 -15.2088 -3.57839 9.93923e-016 -1.19271e-015 -1.59028e-015 1.98785e-015 -7.95139e-016 -1.59028e-015 1.2921e-015 -7.95139e-016 -1.59028e-015 9.93923e-016 -1.19271e-015 -1.59028e-015 0.0149959 -9.2083e-005 1.55747e-006 -1.98785e-016 -7.95139e-016 -0 9.93923e-016 -1.19271e-015 -1.59028e-015 0.0189943 -0.00119131 -5.91077e-005 -3.97569e-016 -3.97569e-016 -1.59028e-015 9.93923e-016 -1.19271e-015 -1.59028e-015 0.0122888 -0.00325206 -0.000676408 1.68967e-015 -7.95139e-016 -1.59028e-015 9.93923e-016 -1.19271e-015 -1.59028e-015 1.98785e-015 -7.95139e-016 -1.59028e-015 1.2921e-015 -7.95139e-016 -1.59028e-015 -24.4531 -21.865 -15.576 -91.746 89.1185 89.8175 28.819 45.8624 -31.6817 3.22332e-006 5.66191e-007 -1.77928e-007 24.4348 -21.875 15.5529 91.6379 89.1463 -89.7005 -28.8353 45.8577 31.6895 4.37326e-015 -3.18055e-015 -3.18055e-015 
